<svg width="125" height="26" viewBox="0 0 125 26" fill="none" xmlns="http://www.w3.org/2000/svg">
<g clip-path="url(#clip0_540_1976)">
<path d="M27.4347 2.7522V6.90007H32.1377V8.8037H27.4347V12.9774H25.4248V2.7522H27.4347ZM34.1672 2.7522V4.83616C34.1672 5.97832 33.25 6.90007 32.1377 6.90007V2.7522H34.1672ZM34.1672 10.8676V12.9774H32.1377V8.8037C33.25 8.8037 34.1672 9.72545 34.1672 10.8676Z" fill="white"/>
<path d="M43.014 4.65582H37.5499V11.1682H35.54V4.65582C35.54 3.61384 36.3596 2.7522 37.3939 2.7522H41.1603C42.1944 2.7522 43.014 3.61384 43.014 4.65582ZM43.014 11.1682V4.65582H45.024V11.1682C45.024 12.2102 44.2963 12.9774 43.2815 12.9774H39.3469C38.3323 12.9774 37.5499 12.2102 37.5499 11.1682H43.014Z" fill="white"/>
<path d="M50.2622 2.75195H53.4431C54.458 2.75195 55.2776 3.6136 55.2776 4.65558V12.9771H53.2675V4.65558H48.428C48.428 3.6136 49.2475 2.75195 50.2622 2.75195ZM48.428 12.9771H46.3984V4.65558H48.428V12.9771Z" fill="white"/>
<path d="M65.8973 0V0.848488C65.8973 2.05078 64.9412 2.74562 63.7703 2.74562V0H65.8973ZM58.5828 2.74562H63.7703V4.7264H58.7746V11.1681H63.7703V4.7264H65.8973V11.1681C65.8973 12.2101 65.0284 12.9773 64.0137 12.9773H58.7171C57.5462 12.9773 56.6475 12.17 56.6475 10.9677V4.7264C56.6475 3.6243 57.5096 2.74562 58.5828 2.74562Z" fill="white"/>
<path d="M69.3274 2.7522V4.63578H74.0302V2.7522H69.3274ZM67.2588 12.9774V6.69971C67.2588 5.55753 68.176 4.63578 69.2883 4.63578V12.9774H67.2588Z" fill="white"/>
<path d="M75.0353 2.75195H81.5141C82.5288 2.75195 83.3485 3.59356 83.3485 4.63554V11.168H81.3384V8.84353H76.05V11.168H81.3384V12.9771H75.8182C74.7839 12.9771 74.0205 12.2099 74.0205 11.168V8.84353C74.0205 7.80154 74.8401 6.95995 75.8744 6.95995H81.3384V4.63554H75.0353V2.75195Z" fill="white"/>
<path d="M93.274 2.75195V4.63554H86.7171V6.95995H84.707V4.63554C84.707 3.59356 85.5266 2.75195 86.5415 2.75195H93.274ZM86.7171 6.95995H91.7908C92.8055 6.95995 93.6252 7.80154 93.6252 8.84353V11.168C93.6252 12.2099 92.8733 12.9771 91.8584 12.9771H85.0388V11.168H91.6152V8.84353H86.7171V6.95995Z" fill="white"/>
<path d="M94.9941 1.14906V0H97.0235V2.74562C95.9112 2.74562 94.9941 2.29122 94.9941 1.14906ZM97.0235 2.74562H101.846C102.919 2.74562 103.893 3.49459 103.893 4.59668V12.9773H101.863V4.59668L97.0235 4.60592V2.74562ZM97.0235 12.9773H94.9941V4.60592H97.0235V12.9773Z" fill="white"/>
<path d="M112.736 4.65558H107.272V11.168H105.262V4.65558C105.262 3.6136 106.081 2.75195 107.116 2.75195H110.882C111.916 2.75195 112.736 3.6136 112.736 4.65558ZM112.736 11.168V4.65558H114.746V11.168C114.746 12.2099 113.908 12.9771 112.893 12.9771H109.11C108.095 12.9771 107.272 12.2099 107.272 11.168H112.736Z" fill="white"/>
<path d="M116.121 2.7522H118.131V11.1682C117.019 11.1682 116.121 10.2264 116.121 9.08423V2.7522ZM122.99 2.7522H125V9.08423C125 10.2264 124.102 11.1682 122.99 11.1682V2.7522ZM122.971 12.9774H118.131V11.1682H122.971V12.9774Z" fill="white"/>
<path d="M32.8988 17.6032H27.4347V24.1156H25.4248V17.6032C25.4248 16.5613 26.2065 15.7676 27.2408 15.7676H31.0239C32.0582 15.7676 32.8988 16.5613 32.8988 17.6032ZM32.8988 24.1156V17.6032H34.9088V24.1156C34.9088 25.1576 34.0892 25.9992 33.0744 25.9992H29.2691C28.2543 25.9992 27.4347 25.1576 27.4347 24.1156H32.8988Z" fill="white"/>
<path d="M40.1035 15.7676H43.2814C44.2962 15.7676 45.1622 16.5613 45.1622 17.6032V25.9992H43.1523V17.6032H38.3127C38.3127 16.5613 39.0888 15.7676 40.1035 15.7676ZM38.3127 25.9992H36.2832V17.6032H38.3127V25.9992Z" fill="white"/>
<path d="M48.5423 25.9993H46.5322V15.7522H48.5423V25.9993Z" fill="white"/>
<path d="M49.9014 17.3152V15.7522H51.9114V19.3791C50.7991 19.3791 49.9014 18.4573 49.9014 17.3152ZM51.9114 25.9993H49.9014V19.86H51.9114V25.9993Z" fill="white"/>
<path d="M57.2037 15.7676H60.3817C61.3963 15.7676 62.1495 16.5613 62.1495 17.6032V25.9992H60.1396V17.6032H55.3C55.3 16.5613 56.1889 15.7676 57.2037 15.7676ZM55.3 25.9992H53.2705V17.6032H55.3V25.9992Z" fill="white"/>
<path d="M65.3757 15.7676H70.8236C71.8383 15.7676 72.6327 16.5412 72.6327 17.6032V20.148H72.6132C72.5352 21.1099 71.7545 21.8514 70.7984 21.8514H65.5491V19.9478H70.6228V17.6032H65.5491V19.9478C64.4366 19.9478 63.5195 19.026 63.5195 17.8838V17.6032H63.539C63.539 16.5412 64.3609 15.7676 65.3757 15.7676ZM63.5195 23.9352V23.9153C63.5195 22.773 64.4366 21.8514 65.5491 21.8514V24.1156H72.2619V25.9992H65.5491C64.1439 25.9992 63.5195 25.0774 63.5195 23.9352Z" fill="white"/>
<path d="M6.02714 2.74609H0.164908C0.0738316 2.74609 0 2.82168 0 2.91492V19.5386C0 19.6318 0.0738318 19.7074 0.164908 19.7074H6.02714C6.11822 19.7074 6.19205 19.6318 6.19205 19.5386V2.91492C6.19205 2.82168 6.11822 2.74609 6.02714 2.74609Z" fill="white"/>
<path d="M22.7001 19.7109H6.19141V25.9999H22.7001V19.7109Z" fill="white"/>
</g>
<defs>
<clipPath id="clip0_540_1976">
<rect width="125" height="26" fill="white"/>
</clipPath>
</defs>
</svg>
