<svg width="174" height="34" viewBox="0 0 174 34" fill="none" xmlns="http://www.w3.org/2000/svg">
<g clip-path="url(#clip0_402_8564)">
<path fill-rule="evenodd" clip-rule="evenodd" d="M159.126 1.42725H151.852V5.52982H159.126V5.53104C165.001 6.03272 169.609 10.8483 169.609 16.7148C169.609 22.5831 165.001 27.4979 159.126 28.0024H155.981V13.76H158.077V13.7805C158.099 13.7805 158.12 13.7768 158.144 13.7768C159.879 13.7768 161.287 15.1536 161.287 16.8494C161.287 18.5456 159.879 19.9224 158.144 19.9224C158.121 19.9224 158.1 19.9187 158.077 19.9187V24.0173C162.13 24.0173 165.415 20.8079 165.415 16.8494C165.415 12.8922 162.13 9.68184 158.077 9.68184H151.787V32.2081H159.126V32.1962C167.357 31.6677 173.868 24.985 173.868 16.8113C173.868 8.63818 167.357 1.95427 159.126 1.42725Z" fill="#1E4381"/>
<path fill-rule="evenodd" clip-rule="evenodd" d="M116.259 14.1761C111.772 14.1761 111.68 9.16144 111.68 7.90343C111.68 6.62619 111.771 1.61279 116.259 1.61279C120.746 1.61279 120.837 6.67932 120.837 7.90343C120.837 9.16144 120.746 14.1761 116.259 14.1761ZM117.998 7.88695C117.998 6.21001 118.05 4.46498 116.284 4.46498C114.52 4.46498 114.489 6.25337 114.489 7.9132C114.489 9.34617 114.429 11.3053 116.284 11.3053C118.143 11.3053 117.998 9.31869 117.998 7.88695Z" fill="#1E4381"/>
<path fill-rule="evenodd" clip-rule="evenodd" d="M116.259 14.1761C111.772 14.1761 111.68 9.16144 111.68 7.90343C111.68 6.62619 111.771 1.61279 116.259 1.61279C120.746 1.61279 120.837 6.67932 120.837 7.90343C120.837 9.16144 120.746 14.1761 116.259 14.1761ZM117.998 7.88695C117.998 6.21001 118.05 4.46498 116.284 4.46498C114.52 4.46498 114.489 6.25337 114.489 7.9132C114.489 9.34617 114.429 11.3053 116.284 11.3053C118.143 11.3053 117.998 9.31869 117.998 7.88695Z" fill="#1E4381"/>
<path fill-rule="evenodd" clip-rule="evenodd" d="M100.413 32.6399C94.7593 32.6399 94.6445 26.323 94.6445 24.7389C94.6445 23.1325 94.7593 16.8159 100.413 16.8159C106.065 16.8159 106.18 23.1984 106.18 24.7389C106.18 26.323 106.065 32.6399 100.413 32.6399ZM102.604 24.7184C102.604 22.6057 102.67 20.407 100.446 20.407C98.2217 20.407 98.185 22.661 98.185 24.7517C98.185 26.5559 98.1066 29.0237 100.446 29.0237C102.786 29.0237 102.604 26.5233 102.604 24.7184Z" fill="#1E4381"/>
<path fill-rule="evenodd" clip-rule="evenodd" d="M100.413 32.6399C94.7593 32.6399 94.6445 26.323 94.6445 24.7389C94.6445 23.1325 94.7593 16.8159 100.413 16.8159C106.065 16.8159 106.18 23.1984 106.18 24.7389C106.18 26.323 106.065 32.6399 100.413 32.6399ZM102.604 24.7184C102.604 22.6057 102.67 20.407 100.446 20.407C98.2217 20.407 98.185 22.661 98.185 24.7517C98.185 26.5559 98.1066 29.0237 100.446 29.0237C102.786 29.0237 102.604 26.5233 102.604 24.7184Z" fill="#1E4381"/>
<path fill-rule="evenodd" clip-rule="evenodd" d="M124.194 14.06H121.359L121.376 1.78955H124.212L124.194 14.06Z" fill="#1E4381"/>
<path d="M111.025 1.7583H108.191V14.0715H111.025V1.7583Z" fill="#1E4381"/>
<path d="M97.1458 1.78467H94.3105V13.9638H97.1458V1.78467Z" fill="#1E4381"/>
<path d="M109.722 1.75488H103.908V4.55028H109.722V1.75488Z" fill="#1E4381"/>
<path d="M126.566 11.2681H121.812V14.0638H126.566V11.2681Z" fill="#1E4381"/>
<path d="M148.242 1.7251H145.406V14.0963H148.242V1.7251Z" fill="#1E4381"/>
<path fill-rule="evenodd" clip-rule="evenodd" d="M146.126 4.44932V5.53083C146.152 5.35526 146.169 5.1742 146.169 4.99069C146.169 4.80565 146.152 4.62672 146.126 4.44932ZM144.359 4.53939C143.724 4.53939 143.048 5.05267 143.048 5.8319C143.048 6.60838 143.576 7.35281 144.212 7.35281L144.36 7.37662H145.384C144.841 8.03341 144.058 8.33204 143.199 8.33204C141.558 8.33204 140.227 6.83678 140.227 4.99069C140.227 3.14581 141.527 1.78613 143.169 1.78613C144.637 1.78613 146.043 2.96475 146.282 4.5397L144.359 4.53939Z" fill="#1E4381"/>
<path fill-rule="evenodd" clip-rule="evenodd" d="M146.375 1.78955H143.102L143.114 4.42189H146.385L146.375 1.78955Z" fill="#1E4381"/>
<path d="M146.318 7.3418H142.359V10.0929H146.318V7.3418Z" fill="#1E4381"/>
<path fill-rule="evenodd" clip-rule="evenodd" d="M142.683 11.6465C142.683 11.6465 143.065 10.8892 143.068 10.8651C143.131 10.4126 143.375 10.0993 143.7 10.0251C143.563 9.18236 142.961 8.23428 142.266 8.14298C141.346 8.02054 140.464 8.92068 140.295 10.1534C140.128 11.3851 140.738 12.4819 141.657 12.6043C142.179 12.6727 142.685 12.4111 142.571 12.6053L142.683 11.6465Z" fill="#1E4381"/>
<path fill-rule="evenodd" clip-rule="evenodd" d="M143.114 10.5152L142.636 14.0969H139.725L140.323 9.96924L143.114 10.5152Z" fill="#1E4381"/>
<path d="M148.271 16.8818H144.76V32.3781H148.271V16.8818Z" fill="#1E4381"/>
<path d="M129.816 16.8818H126.305V32.3782H129.816V16.8818Z" fill="#1E4381"/>
<path d="M136.946 16.8818H133.434V32.3781H136.946V16.8818Z" fill="#1E4381"/>
<path fill-rule="evenodd" clip-rule="evenodd" d="M130.077 32.4214H127.586L132.68 16.9248H135.173L130.077 32.4214Z" fill="#1E4381"/>
<path fill-rule="evenodd" clip-rule="evenodd" d="M145.62 20.347V21.6951C145.652 21.4768 145.673 21.2511 145.673 21.0209C145.673 20.7922 145.652 20.5668 145.62 20.347ZM143.232 20.3146H145.616C145.317 18.3498 143.811 16.8545 141.993 16.8545C139.96 16.8545 138.312 18.7208 138.312 21.0206C138.312 23.3226 139.96 25.1888 141.993 25.1888C143.057 25.1888 144.014 24.6731 144.685 23.8532H143.232V23.8242C142.444 23.8242 141.805 23.0407 141.805 22.0707C141.805 21.1009 142.444 20.3146 143.232 20.3146Z" fill="#1E4381"/>
<path d="M145.94 16.8818H141.887V20.3132H145.94V16.8818Z" fill="#1E4381"/>
<path d="M145.858 23.8525H140.957V27.2839H145.858V23.8525Z" fill="#1E4381"/>
<path fill-rule="evenodd" clip-rule="evenodd" d="M141.357 29.3215C141.357 29.3215 141.829 28.378 141.834 28.3468C141.911 27.7826 142.213 27.3939 142.616 27.3001C142.445 26.2488 141.701 25.0675 140.84 24.9527C139.699 24.8012 138.607 25.9234 138.4 27.4598C138.192 28.9951 138.947 30.3642 140.086 30.5169C140.731 30.6033 141.358 30.2757 141.218 30.5184L141.357 29.3215Z" fill="#1E4381"/>
<path fill-rule="evenodd" clip-rule="evenodd" d="M141.887 27.9118L141.297 32.378H137.691L138.431 27.23L141.887 27.9118Z" fill="#1E4381"/>
<path fill-rule="evenodd" clip-rule="evenodd" d="M139.507 14.096L136.403 1.78955H133.625L136.715 14.096H139.507Z" fill="#1E4381"/>
<path fill-rule="evenodd" clip-rule="evenodd" d="M129.109 14.096L132.222 1.78955H134.999L131.901 14.096H129.109Z" fill="#1E4381"/>
<path d="M136.638 8.54004H132.305V11.344H136.638V8.54004Z" fill="#1E4381"/>
<path fill-rule="evenodd" clip-rule="evenodd" d="M126.499 1.78467C125.234 1.78467 124.148 2.71871 123.887 4.14313H124.827C125.495 4.14313 126.035 4.68206 126.035 5.3474C126.035 6.01213 125.495 6.55014 124.827 6.55014C124.737 6.55014 124.65 6.53701 124.566 6.51747H124.234C124.703 7.40692 125.524 7.9999 126.465 7.9999C127.927 7.9999 129.11 6.57884 129.11 4.82526C129.11 3.07169 127.961 1.78467 126.499 1.78467Z" fill="#1E4381"/>
<path fill-rule="evenodd" clip-rule="evenodd" d="M126.659 14.064C125.331 14.064 124.225 12.668 123.951 11.2265H124.94C125.642 11.2265 126.208 10.6814 126.208 10.0072C126.208 9.33488 125.642 8.78893 124.94 8.78893C124.843 8.78893 124.752 8.80206 124.663 8.82251H124.315C124.808 7.92237 125.67 7.32573 126.659 7.32084C128.459 7.31138 129.44 9.07473 129.44 10.8497C129.44 12.6256 128.195 14.064 126.659 14.064Z" fill="#1E4381"/>
<path fill-rule="evenodd" clip-rule="evenodd" d="M126.198 1.81738H124.127L124.138 4.14927H126.208L126.198 1.81738Z" fill="#1E4381"/>
<path d="M126.256 6.49609H124.051V8.88691H126.256V6.49609Z" fill="#1E4381"/>
<path d="M106.753 1.7666H103.918V9.10517H106.753V1.7666Z" fill="#1E4381"/>
<path fill-rule="evenodd" clip-rule="evenodd" d="M104.183 4.58252C104.079 4.58252 103.977 4.59932 103.875 4.62344V8.35227C103.9 8.53853 103.868 8.8457 103.868 9.04601C103.868 10.3184 103.366 11.2344 102.684 11.2344C102.509 11.2344 102.346 11.1633 102.195 11.042L102.243 13.9284C102.909 14.2936 103.909 14.2118 104.175 14.2118C105.587 14.2118 106.744 11.9913 106.744 9.33852C106.743 6.68541 105.596 4.58252 104.183 4.58252Z" fill="#1E4381"/>
<path d="M101.539 1.76562H94.2969V4.5372H101.539V1.76562Z" fill="#1E4381"/>
<path d="M101.539 11.3086H94.2969V14.1101H101.539V11.3086Z" fill="#1E4381"/>
<path d="M86.9006 11.3052H84.0469V15.6954H86.9006V11.3052Z" fill="#1E4381"/>
<path d="M93.426 11.3403H90.5723V15.696H93.426V11.3403Z" fill="#1E4381"/>
<path d="M101.175 6.43018H94.3359V9.12726H101.175V6.43018Z" fill="#1E4381"/>
<path fill-rule="evenodd" clip-rule="evenodd" d="M92.71 11.3483V1.78467L85.7878 1.80177L85.7999 4.57549V7.39868H85.7927C85.7878 7.83318 85.7246 8.33455 85.5971 8.86066C85.4124 9.6179 85.1299 10.9144 84.8292 11.3486H84.0762V14.097H93.4341V11.3486L92.71 11.3483ZM89.8747 11.3483H87.6154C87.8623 10.8826 87.9588 9.87928 88.1264 9.19378C88.202 8.88661 88.3513 7.81364 88.3622 7.22189H88.3674V4.57519H89.8747V11.3483Z" fill="#1E4381"/>
<path fill-rule="evenodd" clip-rule="evenodd" d="M115.379 27.7328C114.738 28.0955 113.898 28.3187 113.39 28.3187C111.897 28.3187 110.689 26.5856 110.689 24.4513C110.689 22.3151 111.897 20.5841 113.39 20.5841C113.977 20.5841 114.733 20.7664 115.379 21.1395V17.2846C114.608 16.8755 113.597 16.6498 112.265 16.6584C108.721 16.6797 106.719 20.1811 106.719 24.5258C106.719 28.8708 108.798 32.3935 112.265 32.3935C113.598 32.3935 114.608 32.1486 115.379 31.7166V27.7328Z" fill="#1E4381"/>
<path fill-rule="evenodd" clip-rule="evenodd" d="M124.644 27.7328C124.002 28.0955 123.163 28.3187 122.653 28.3187C121.162 28.3187 119.952 26.5856 119.952 24.4513C119.952 22.3151 121.162 20.5841 122.653 20.5841C123.241 20.5841 123.998 20.7664 124.644 21.1395V17.2846C123.872 16.8755 122.861 16.6498 121.528 16.6584C117.985 16.6797 115.984 20.1811 115.984 24.5258C115.984 28.8708 118.064 32.3935 121.528 32.3935C122.861 32.3935 123.87 32.1486 124.644 31.7166V27.7328Z" fill="#1E4381"/>
<path d="M87.5842 16.8696H84.0742V32.3676H87.5842V16.8696Z" fill="#1E4381"/>
<path d="M90.1587 16.8726H85.0938V20.3437H90.1587V16.8726Z" fill="#1E4381"/>
<path d="M90.5795 23.8398H85.0938V27.3121H90.5795V23.8398Z" fill="#1E4381"/>
<path fill-rule="evenodd" clip-rule="evenodd" d="M86.7461 21.042C86.7461 21.2713 86.7669 21.4961 86.7986 21.7153V20.3687C86.7669 20.5871 86.7461 20.8118 86.7461 21.042ZM90.6122 22.0899C90.6122 23.0597 89.9727 23.8444 89.1855 23.8444V23.8747H87.733C88.4054 24.6933 89.3603 25.2081 90.4252 25.2081C92.4584 25.2081 94.1053 23.3431 94.1053 21.042C94.1053 18.74 92.4584 16.875 90.4252 16.875C88.6076 16.875 87.101 18.3703 86.8039 20.3351H89.1855C89.9727 20.3351 90.6122 21.1199 90.6122 22.0899Z" fill="#1E4381"/>
<path fill-rule="evenodd" clip-rule="evenodd" d="M86.7925 23.8057V22.4567C86.7595 22.6774 86.7402 22.901 86.7402 23.1324C86.7402 23.3617 86.7595 23.5864 86.7925 23.8057ZM89.1793 23.8384H86.7974C87.0948 25.8017 88.6011 27.2985 90.4191 27.2985C92.451 27.2985 94.0988 25.4322 94.0988 23.1324C94.0988 20.8304 92.451 18.9639 90.4191 18.9639C89.3541 18.9639 88.3977 19.4799 87.7255 20.3001H89.1793V20.3275C89.9653 20.3275 90.6047 21.1138 90.6047 22.0823C90.6047 23.0521 89.9653 23.8384 89.1793 23.8384Z" fill="#1E4381"/>
<path fill-rule="evenodd" clip-rule="evenodd" d="M94.1731 22.0151C94.1731 24.0484 93.5912 25.6975 92.8758 25.6975C92.1595 25.6975 91.5801 24.0484 91.5801 22.0151C91.5801 19.9806 92.1595 18.3306 92.8758 18.3306C93.5912 18.3306 94.1731 19.9806 94.1731 22.0151Z" fill="#1E4381"/>
<path fill-rule="evenodd" clip-rule="evenodd" d="M2.50525 8.94568C0.12993 8.94568 0.0820312 6.20189 0.0820312 5.51548C0.0820312 4.81777 0.12993 2.0752 2.50525 2.0752C4.88088 2.0752 4.92847 4.84678 4.92847 5.51517C4.92847 6.20189 4.88088 8.94568 2.50525 8.94568ZM3.54688 5.51548C3.54688 4.59732 3.43958 3.10634 2.50525 3.10634C1.57123 3.10634 1.46361 4.60678 1.46361 5.51548C1.46361 6.29807 1.52209 7.91333 2.50525 7.91333C3.48841 7.91333 3.54688 6.29807 3.54688 5.51548Z" fill="#1E4381"/>
<path fill-rule="evenodd" clip-rule="evenodd" d="M7.57795 4.83588H8.25911C8.71632 4.83588 9.29079 4.87435 9.73836 5.18031C10.0991 5.42763 10.478 5.89725 10.478 6.83312C10.478 7.44533 10.3131 8.78242 8.21992 8.78242H6.44923C6.27319 8.78242 6.25391 8.67707 6.25391 8.59066V2.42674C6.25391 2.25636 6.36152 2.23682 6.44923 2.23682H9.85561C9.94208 2.23682 10.0012 2.2643 10.0012 2.34246C10.0012 2.35071 10.0012 2.36995 9.98127 2.43712L9.78688 3.11589C9.75764 3.20231 9.71876 3.26826 9.56325 3.26826H7.57764L7.57795 4.83588ZM7.57795 7.74975H7.92879C8.50233 7.74975 9.16513 7.67311 9.16513 6.80411C9.16513 5.91557 8.4451 5.86641 8.02583 5.86641H7.57826L7.57795 7.74975Z" fill="#1E4381"/>
<path fill-rule="evenodd" clip-rule="evenodd" d="M14.6134 2.42814C14.6134 2.25654 14.7214 2.2373 14.8078 2.2373H15.7422C15.9182 2.2373 15.9375 2.34295 15.9375 2.42814V7.74994H17.2995V2.42814C17.2995 2.34295 17.3188 2.2373 17.4939 2.2373H18.4291C18.6039 2.2373 18.6235 2.34295 18.6235 2.42814V7.74994H19.012C19.1 7.74994 19.208 7.76917 19.208 7.9423V10.1398C19.208 10.2263 19.1884 10.3307 19.012 10.3307H18.166C17.9912 10.3307 17.9716 10.2263 17.9716 10.1398V8.78382H12.1221C11.947 8.78382 11.9277 8.67788 11.9277 8.59146V2.42814C11.9277 2.25654 12.0341 2.2373 12.1221 2.2373H13.0561C13.2309 2.2373 13.2505 2.34295 13.2505 2.42814V7.74994H14.6134V2.42814Z" fill="#1E4381"/>
<path fill-rule="evenodd" clip-rule="evenodd" d="M21.7382 7.74994H23.7627C23.8494 7.74994 23.9571 7.76918 23.9571 7.94231V8.59146C23.9571 8.76337 23.8491 8.7823 23.7627 8.7823H20.6085C20.4337 8.7823 20.4141 8.67788 20.4141 8.59146V2.42814C20.4141 2.25654 20.5221 2.2373 20.6085 2.2373H23.9085C23.9474 2.2373 23.9966 2.24585 24.0258 2.28433C24.0553 2.32372 24.0454 2.37074 24.0354 2.40921L23.8414 3.12676C23.8302 3.17379 23.8022 3.26875 23.6554 3.26875H21.7385V4.8553H23.3729C23.549 4.8553 23.5673 4.96095 23.5673 5.04767V5.69682C23.5673 5.86873 23.461 5.88675 23.3729 5.88675H21.7385L21.7382 7.74994Z" fill="#1E4381"/>
<path fill-rule="evenodd" clip-rule="evenodd" d="M26.5761 8.59145C26.5761 8.67787 26.5568 8.78382 26.3817 8.78382H25.4477C25.2716 8.78382 25.252 8.67787 25.252 8.59145V2.42814C25.252 2.25653 25.3596 2.2373 25.4477 2.2373H27.0432C27.4809 2.2373 28.0846 2.25653 28.5325 2.50508C28.9029 2.70569 29.3209 3.13531 29.3209 4.06293C29.3209 5.3243 28.4737 6.1646 27.0921 6.1646H26.5761V8.59145ZM26.5761 5.13224H26.8784C27.4429 5.13224 27.9969 5.05682 27.9969 4.12889C27.9969 3.25042 27.3748 3.24095 27.0044 3.24095H26.5764L26.5761 5.13224Z" fill="#1E4381"/>
<path fill-rule="evenodd" clip-rule="evenodd" d="M32.7669 8.94586C30.3925 8.94586 30.3438 6.20207 30.3438 5.51566C30.3438 4.81826 30.3925 2.07568 32.7669 2.07568C35.1425 2.07568 35.1902 4.84727 35.1902 5.51566C35.1902 6.20207 35.1425 8.94586 32.7669 8.94586ZM33.8086 5.51566C33.8086 4.5975 33.7009 3.10652 32.7669 3.10652C31.8329 3.10652 31.7253 4.60696 31.7253 5.51566C31.7253 6.29825 31.7837 7.91351 32.7669 7.91351C33.75 7.91351 33.8086 6.29825 33.8086 5.51566Z" fill="#1E4381"/>
<path fill-rule="evenodd" clip-rule="evenodd" d="M40.2233 8.1899C40.2624 8.25708 40.2721 8.29524 40.2721 8.33372C40.2721 8.40059 40.1937 8.46807 40.1545 8.49555C39.8146 8.7728 39.2205 8.94562 38.6364 8.94562C36.4175 8.94562 36.1348 6.95693 36.1348 5.6003C36.1348 2.64765 37.5761 2.07422 38.6068 2.07422C39.0849 2.07422 39.6777 2.21803 40.0681 2.55177C40.2037 2.66566 40.2525 2.74261 40.2525 2.80124C40.2525 2.84826 40.2233 2.88673 40.2037 2.92368L39.8444 3.46016C39.8149 3.50719 39.7956 3.55512 39.7371 3.55512C39.6684 3.55512 39.5819 3.48795 39.5328 3.44917C39.2796 3.24887 39.0361 3.10597 38.7244 3.10597C38.3932 3.10597 38.1204 3.22139 37.9356 3.41222C37.6436 3.70749 37.5176 4.27176 37.5176 5.53313C37.5176 5.95297 37.5469 7.04304 37.8965 7.51082C38.0433 7.70288 38.3061 7.91204 38.7536 7.91204C39.0264 7.91204 39.2895 7.82563 39.5521 7.67326C39.6488 7.61678 39.7269 7.55876 39.7953 7.55876C39.8724 7.55876 39.892 7.60578 39.9209 7.65372L40.2233 8.1899Z" fill="#1E4381"/>
<path fill-rule="evenodd" clip-rule="evenodd" d="M45.0319 8.1899C45.071 8.25708 45.081 8.29524 45.081 8.33372C45.081 8.40059 45.0026 8.46807 44.9634 8.49555C44.6235 8.7728 44.0294 8.94562 43.4447 8.94562C41.2261 8.94562 40.9434 6.95693 40.9434 5.6003C40.9434 2.64765 42.3834 2.07422 43.4154 2.07422C43.8932 2.07422 44.4863 2.21803 44.8751 2.55177C45.0119 2.66566 45.0608 2.74261 45.0608 2.80124C45.0608 2.84826 45.0312 2.88673 45.0119 2.92368L44.6511 3.46016C44.6232 3.50719 44.6036 3.55512 44.5448 3.55512C44.4767 3.55512 44.3896 3.48795 44.3407 3.44917C44.0879 3.24887 43.8443 3.10597 43.5324 3.10597C43.2011 3.10597 42.9287 3.22139 42.7439 3.41222C42.4519 3.70749 42.3259 4.27176 42.3259 5.53313C42.3259 5.95297 42.3551 7.04304 42.7047 7.51082C42.8512 7.70288 43.1144 7.91204 43.5619 7.91204C43.8347 7.91204 44.0972 7.82563 44.3603 7.67326C44.4568 7.61678 44.5351 7.55876 44.6036 7.55876C44.6804 7.55876 44.7 7.60578 44.7295 7.65372L45.0319 8.1899Z" fill="#1E4381"/>
<path fill-rule="evenodd" clip-rule="evenodd" d="M50.5103 2.2373C50.6851 2.2373 50.7047 2.34295 50.7047 2.42814V8.59146C50.7047 8.67788 50.6851 8.7823 50.5103 8.7823H49.5762C49.4002 8.7823 49.3818 8.67788 49.3818 8.59146V5.5524C49.3818 5.29438 49.4002 4.83576 49.4198 4.50202H49.3818C49.1371 5.17072 48.9819 5.47667 48.8363 5.78263L47.4926 8.62016C47.4438 8.72551 47.4146 8.78199 47.269 8.78199H46.335C46.159 8.78199 46.1406 8.67757 46.1406 8.59116V2.42814C46.1406 2.25654 46.247 2.2373 46.335 2.2373H47.269C47.4438 2.2373 47.4634 2.34295 47.4634 2.42814V5.18019C47.4634 5.62934 47.4438 5.42873 47.4242 6.51728H47.4634C47.6199 6.13591 47.9598 5.35209 48.1063 5.03637L49.3327 2.43761C49.3915 2.31395 49.4095 2.2373 49.5859 2.2373H50.5103Z" fill="#1E4381"/>
<path fill-rule="evenodd" clip-rule="evenodd" d="M56.8087 2.23733C56.9835 2.23733 57.0028 2.34298 57.0028 2.42817V8.59149C57.0028 8.6779 56.9835 8.78232 56.8087 8.78232H55.8744C55.6983 8.78232 55.6787 8.6779 55.6787 8.59149V5.55242C55.6787 5.29441 55.698 4.83579 55.7179 4.50205H55.6787C55.4355 5.17075 55.2803 5.4767 55.1347 5.78265L53.7911 8.62019C53.7423 8.72553 53.7127 8.78202 53.5672 8.78202H52.6331C52.4571 8.78202 52.4375 8.67759 52.4375 8.59118V2.42817C52.4375 2.25657 52.5451 2.23733 52.6331 2.23733H53.5672C53.7423 2.23733 53.7615 2.34298 53.7615 2.42817V5.18021C53.7615 5.62937 53.7423 5.42876 53.7224 6.5173H53.7615C53.9168 6.13593 54.2583 5.35212 54.4035 5.0364L55.6311 2.43764C55.6887 2.31397 55.7086 2.23733 55.8846 2.23733H56.8087ZM56.1079 0.688945C56.1459 0.688945 56.2047 0.727418 56.2047 0.82238C56.2047 0.966195 56.1655 1.14757 56.0103 1.35886C55.7966 1.63489 55.4175 1.91214 54.7251 1.91214C54.0343 1.91214 53.6552 1.63489 53.4415 1.35886C53.2851 1.14757 53.2459 0.966195 53.2459 0.82238C53.2459 0.727418 53.3043 0.688945 53.3435 0.688945L53.9758 0.622992C54.0051 0.622992 54.0346 0.612305 54.0639 0.612305C54.1519 0.612305 54.1603 0.727418 54.1911 0.81383C54.2679 1.04222 54.4331 1.19551 54.7251 1.19551C55.0172 1.19551 55.1836 1.04222 55.2604 0.81383C55.2899 0.737189 55.2996 0.661465 55.3388 0.631541C55.3876 0.594289 55.4268 0.622992 55.4747 0.622992L56.1079 0.688945Z" fill="#1E4381"/>
<path fill-rule="evenodd" clip-rule="evenodd" d="M62.4342 8.1899C62.4734 8.25708 62.483 8.29524 62.483 8.33372C62.483 8.40059 62.4046 8.46807 62.3654 8.49555C62.0258 8.7728 61.4314 8.94562 60.8482 8.94562C58.6281 8.94562 58.3457 6.95693 58.3457 5.6003C58.3457 2.64765 59.7861 2.07422 60.8178 2.07422C61.2946 2.07422 61.8886 2.21803 62.279 2.55177C62.4146 2.66566 62.4637 2.74261 62.4637 2.80124C62.4637 2.84826 62.4342 2.88673 62.4146 2.92368L62.0541 3.46016C62.0261 3.50719 62.0062 3.55512 61.9477 3.55512C61.879 3.55512 61.7925 3.48795 61.7437 3.44917C61.4902 3.24887 61.247 3.10597 60.9356 3.10597C60.6044 3.10597 60.3316 3.22139 60.1469 3.41222C59.8548 3.70749 59.7288 4.27176 59.7288 5.53313C59.7288 5.95297 59.7584 7.04304 60.1077 7.51082C60.2548 7.70288 60.5173 7.91204 60.9646 7.91204C61.2373 7.91204 61.5005 7.82563 61.763 7.67326C61.8597 7.61678 61.9381 7.55876 62.0062 7.55876C62.083 7.55876 62.1029 7.60578 62.1319 7.65372L62.4342 8.1899Z" fill="#1E4381"/>
<path fill-rule="evenodd" clip-rule="evenodd" d="M63.7374 8.78226C63.6398 8.78226 63.543 8.7728 63.543 8.59051V2.42689C63.543 2.24552 63.6398 2.23697 63.7374 2.23697H64.6715C64.7691 2.23697 64.8659 2.24552 64.8659 2.42689V4.86473H65.1971C65.6643 4.86473 65.9171 4.73038 66.0247 4.14688L66.1703 3.33558C66.239 2.94322 66.3268 2.57101 66.7647 2.313C67.0471 2.14109 67.397 2.07422 67.5914 2.07422C67.6695 2.07422 67.7478 2.09315 67.7771 2.18811L67.9811 2.86719C68.0107 2.96337 67.9715 3.04856 67.8835 3.0678L67.6402 3.1252C67.4163 3.18261 67.2906 3.25833 67.2122 3.73619L67.0947 4.41527C67.0275 4.79695 66.8627 5.16092 66.3367 5.34198V5.36946C67.0471 5.59023 67.1731 6.20121 67.2119 6.38381L67.3671 7.18686C67.4552 7.63449 67.504 7.75937 67.7961 7.82532L68.0492 7.88273C68.1755 7.91174 68.1656 8.01708 68.146 8.07448L67.8928 8.80089C67.8632 8.87661 67.844 8.94379 67.6791 8.94379C67.5727 8.94379 67.0079 8.91478 66.6667 8.62898C66.3644 8.36975 66.3171 7.98807 66.258 7.68304L66.0244 6.53587C65.966 6.24915 65.8876 5.89618 65.2848 5.89618H64.8655V8.58959C64.8655 8.77188 64.7688 8.78135 64.6711 8.78135L63.7374 8.78226Z" fill="#1E4381"/>
<path fill-rule="evenodd" clip-rule="evenodd" d="M71.6719 2.2373C71.7696 2.2373 71.7895 2.29501 71.8187 2.38967L73.726 8.55299C73.7356 8.59146 73.7555 8.62048 73.7555 8.66842C73.7555 8.77284 73.6479 8.7823 73.5987 8.7823H72.5192C72.4016 8.7823 72.3727 8.77283 72.3136 8.582L71.8859 7.03361H70.212L69.8132 8.582C69.774 8.73436 69.7644 8.7823 69.6372 8.7823H68.5968C68.3912 8.7823 68.4304 8.64918 68.4503 8.59146L70.3871 2.38143C70.416 2.29501 70.4259 2.2373 70.5532 2.2373H71.6719ZM71.2443 4.52981C71.1755 4.24309 71.1071 3.91913 71.0303 3.2602H71.0007C70.9911 3.51821 70.9618 3.87119 70.7867 4.52981L70.3588 6.17407H71.6427L71.2443 4.52981Z" fill="#1E4381"/>
<path fill-rule="evenodd" clip-rule="evenodd" d="M78.4457 2.2373C78.5422 2.2373 78.6401 2.24585 78.6401 2.42814V8.59146C78.6401 8.77283 78.5418 8.7823 78.4457 8.7823H77.5114C77.3257 8.7823 77.3161 8.68764 77.3161 8.59146V6.1069H76.8881C76.2844 6.1069 76.2172 6.46109 76.1485 6.74781L75.9245 7.74994C75.8564 8.06566 75.7793 8.40886 75.5165 8.62963C75.2829 8.82994 74.8344 8.94535 74.5321 8.94535C74.3377 8.94535 74.3193 8.87817 74.2888 8.80153L74.0369 8.07513C74.0176 8.01772 74.0077 7.9133 74.1336 7.88337L74.3865 7.82688C74.6201 7.76948 74.7177 7.68398 74.8241 7.18719L74.9317 6.70811C75.0285 6.26048 75.1946 5.83911 75.7298 5.60033V5.5814C75.4085 5.49591 75.0574 5.29469 74.8534 5.00889C74.659 4.7411 74.5806 4.35851 74.5806 4.07149C74.5806 3.55546 74.7862 3.02967 75.1554 2.71486C75.681 2.25654 76.4601 2.2373 76.8486 2.2373H78.4457ZM77.3158 3.26844H76.8293C76.0309 3.26844 75.8953 3.78569 75.8953 4.17683C75.8953 5.06629 76.6741 5.07454 76.8486 5.07454H77.3158V3.26844Z" fill="#1E4381"/>
<path fill-rule="evenodd" clip-rule="evenodd" d="M14.4681 20.4551C12.0928 20.4551 12.0449 17.7126 12.0449 17.0249C12.0449 16.3275 12.0928 13.585 14.4681 13.585C16.8425 13.585 16.8914 16.3565 16.8914 17.0249C16.8914 17.7126 16.8425 20.4551 14.4681 20.4551ZM15.5098 17.0249C15.5098 16.1077 15.4019 14.617 14.4681 14.617C13.5341 14.617 13.4262 16.1175 13.4262 17.0249C13.4262 17.8084 13.4853 19.4243 14.4681 19.4243C15.451 19.4243 15.5098 17.8084 15.5098 17.0249Z" fill="#1E4381"/>
<path fill-rule="evenodd" clip-rule="evenodd" d="M19.5389 16.3463H20.2197C20.6772 16.3463 21.2517 16.3847 21.6993 16.6895C22.0601 16.9383 22.4389 17.4073 22.4389 18.3438C22.4389 18.9545 22.2741 20.2916 20.1805 20.2916H18.4092C18.2341 20.2916 18.2148 20.1872 18.2148 20.1007V13.9374C18.2148 13.7658 18.3221 13.7466 18.4092 13.7466H21.8168C21.9049 13.7466 21.9621 13.7756 21.9621 13.8525C21.9621 13.862 21.9621 13.8812 21.9428 13.9484L21.7484 14.6266C21.7189 14.7121 21.6797 14.7789 21.5245 14.7789H19.5389V16.3463ZM19.5389 19.2607H19.8885C20.4632 19.2607 21.1257 19.1838 21.1257 18.3136C21.1257 17.4266 20.4045 17.3777 19.9861 17.3777H19.5386L19.5389 19.2607Z" fill="#1E4381"/>
<path fill-rule="evenodd" clip-rule="evenodd" d="M26.5763 13.9389C26.5763 13.7661 26.6843 13.7466 26.7707 13.7466H27.706C27.8808 13.7466 27.9004 13.8525 27.9004 13.9389V19.2607H29.2624V13.9389C29.2624 13.8525 29.2817 13.7466 29.4577 13.7466H30.3917C30.5668 13.7466 30.5861 13.8525 30.5861 13.9389V19.2607H30.9764C31.0629 19.2607 31.1708 19.2797 31.1708 19.4525V21.6504C31.1708 21.7355 31.1512 21.8412 30.9764 21.8412H30.1292C29.9532 21.8412 29.9348 21.7352 29.9348 21.6504V20.2928H24.085C23.9099 20.2928 23.8906 20.1884 23.8906 20.102V13.9389C23.8906 13.7661 23.9979 13.7466 24.085 13.7466H25.019C25.1951 13.7466 25.2146 13.8525 25.2146 13.9389V19.2607H26.5766L26.5763 13.9389Z" fill="#1E4381"/>
<path fill-rule="evenodd" clip-rule="evenodd" d="M33.7001 19.2607H35.7246C35.8127 19.2607 35.9187 19.2797 35.9187 19.4525V20.102C35.9187 20.2736 35.8127 20.2916 35.7246 20.2916H32.5711C32.3951 20.2916 32.377 20.1884 32.377 20.102V13.9389C32.377 13.7661 32.4831 13.7466 32.5711 13.7466H35.8711C35.9091 13.7466 35.9579 13.756 35.9871 13.7945C36.0167 13.833 36.0064 13.8809 35.9968 13.9194L35.8024 14.636C35.7927 14.684 35.7632 14.7789 35.6167 14.7789H33.6998V16.3658H35.3355C35.5103 16.3658 35.5299 16.4702 35.5299 16.5566V17.207C35.5299 17.3786 35.4223 17.3966 35.3355 17.3966H33.6998L33.7001 19.2607Z" fill="#1E4381"/>
<path fill-rule="evenodd" clip-rule="evenodd" d="M40.9147 19.7001C40.9539 19.7676 40.9635 19.8054 40.9635 19.8439C40.9635 19.9099 40.8851 19.9773 40.8459 20.006C40.5063 20.283 39.9119 20.4549 39.3278 20.4549C37.1086 20.4549 36.8262 18.4659 36.8262 17.1099C36.8262 14.1585 38.2666 13.5835 39.2983 13.5835C39.7751 13.5835 40.3694 13.7279 40.7579 14.0626C40.8948 14.1765 40.9439 14.2534 40.9439 14.3108C40.9439 14.3588 40.9144 14.3972 40.8948 14.4345L40.5343 14.9697C40.5063 15.0177 40.4864 15.0647 40.4279 15.0647C40.3592 15.0647 40.2727 14.9988 40.2239 14.9603C39.9704 14.7597 39.7272 14.6168 39.4155 14.6168C39.0843 14.6168 38.8115 14.7307 38.6267 14.9227C38.3347 15.218 38.2087 15.7823 38.2087 17.0436C38.2087 17.4638 38.2383 18.5523 38.5879 19.0216C38.7344 19.2125 38.9972 19.4225 39.4451 19.4225C39.7175 19.4225 39.9803 19.3361 40.2432 19.1838C40.3399 19.1273 40.4183 19.0683 40.4864 19.0683C40.5632 19.0683 40.5831 19.1163 40.6127 19.1645L40.9147 19.7001Z" fill="#1E4381"/>
<path fill-rule="evenodd" clip-rule="evenodd" d="M43.854 20.1007C43.854 20.2726 43.7466 20.2915 43.6596 20.2915H42.7246C42.5495 20.2915 42.5302 20.1871 42.5302 20.1007V14.8928H41.2354C41.0898 14.8928 41.0898 14.7874 41.0898 14.749V13.8894C41.0898 13.8509 41.0898 13.7456 41.2354 13.7456H45.3727C45.5671 13.7456 45.5183 13.88 45.4984 13.9471L45.2847 14.7407C45.2455 14.8741 45.1584 14.8931 45.0806 14.8931H43.8543L43.854 20.1007Z" fill="#1E4381"/>
<path fill-rule="evenodd" clip-rule="evenodd" d="M47.9023 13.7466C48.3792 13.7466 49.0992 13.7658 49.576 14.1197C49.8681 14.3396 50.1704 14.7692 50.1704 15.4199C50.1704 16.2504 49.664 16.662 49.1776 16.8623C49.5664 16.9572 50.394 17.2919 50.394 18.4861C50.394 20.1099 49.0407 20.2913 47.9804 20.2913H46.3643C46.1892 20.2913 46.1699 20.1881 46.1699 20.1017V13.9389C46.1699 13.7661 46.2763 13.7466 46.3643 13.7466H47.9023ZM47.7944 16.4507C48.2616 16.4507 48.8557 16.356 48.8557 15.5527C48.8557 15.295 48.7969 14.7496 47.9023 14.7496H47.4927V16.4504L47.7944 16.4507ZM47.8436 19.2891C48.418 19.2891 49.0796 19.2125 49.0796 18.3817C49.0796 17.454 48.2432 17.454 47.8632 17.454H47.4927V19.2891H47.8436Z" fill="#1E4381"/>
<path fill-rule="evenodd" clip-rule="evenodd" d="M53.1678 19.2607H55.1926C55.2791 19.2607 55.387 19.2797 55.387 19.4525V20.102C55.387 20.2736 55.2791 20.2916 55.1926 20.2916H52.0381C51.8637 20.2916 51.8438 20.1884 51.8438 20.102V13.9389C51.8438 13.7661 51.9514 13.7466 52.0381 13.7466H55.3382C55.3772 13.7466 55.4262 13.756 55.4551 13.7945C55.4846 13.833 55.4749 13.8809 55.465 13.9194L55.2706 14.636C55.2606 14.684 55.2315 14.7789 55.0847 14.7789H53.1678V16.3658H54.8022C54.9783 16.3658 54.9966 16.4702 54.9966 16.5566V17.207C54.9966 17.3786 54.8903 17.3966 54.8022 17.3966H53.1678V19.2607Z" fill="#1E4381"/>
<path fill-rule="evenodd" clip-rule="evenodd" d="M56.6816 13.9389C56.6816 13.7576 56.7793 13.7466 56.876 13.7466H57.8101C57.9077 13.7466 58.0054 13.7576 58.0054 13.9389V16.3753H59.8445V13.9389C59.8445 13.7576 59.9422 13.7466 60.0398 13.7466H60.9741C61.1586 13.7466 61.1685 13.844 61.1685 13.9389V20.1023C61.1685 20.1969 61.1586 20.2931 60.9741 20.2931H60.0398C59.9422 20.2931 59.8445 20.2833 59.8445 20.1023V17.4076H58.0054V20.1023C58.0054 20.2833 57.9077 20.2931 57.8101 20.2931H56.876C56.7793 20.2931 56.6816 20.2833 56.6816 20.1023V13.9389Z" fill="#1E4381"/>
<path fill-rule="evenodd" clip-rule="evenodd" d="M62.9004 13.9389C62.9004 13.7576 62.9984 13.7466 63.0948 13.7466H64.0304C64.1271 13.7466 64.2247 13.7576 64.2247 13.9389V16.3753H66.0636V13.9389C66.0636 13.7576 66.1612 13.7466 66.2589 13.7466H67.1932C67.3776 13.7466 67.3873 13.844 67.3873 13.9389V20.1023C67.3873 20.1969 67.3776 20.2931 67.1932 20.2931H66.2589C66.1612 20.2931 66.0636 20.2833 66.0636 20.1023V17.4076H64.2247V20.1023C64.2247 20.2833 64.1271 20.2931 64.0304 20.2931H63.0948C62.9984 20.2931 62.9004 20.2833 62.9004 20.1023V13.9389Z" fill="#1E4381"/>
<path fill-rule="evenodd" clip-rule="evenodd" d="M71.6719 13.7464C71.7696 13.7464 71.7895 13.8053 71.8187 13.9003L73.726 20.0636C73.7356 20.1021 73.7555 20.1296 73.7555 20.1775C73.7555 20.2828 73.6479 20.2914 73.5987 20.2914H72.5192C72.4016 20.2914 72.3727 20.2828 72.3136 20.0911L71.8859 18.5439H70.212L69.8132 20.0911C69.774 20.245 69.7644 20.2914 69.6372 20.2914H68.5968C68.3912 20.2914 68.4304 20.1583 68.4503 20.1018L70.3871 13.8905C70.416 13.805 70.4259 13.7461 70.5532 13.7461L71.6719 13.7464ZM71.2443 16.0401C71.1755 15.7534 71.1071 15.4282 71.0303 14.769H71.0007C70.9911 15.027 70.9618 15.3812 70.7867 16.0401L70.3588 17.6844H71.6427L71.2443 16.0401Z" fill="#1E4381"/>
<path fill-rule="evenodd" clip-rule="evenodd" d="M78.4457 13.7466C78.5422 13.7466 78.6401 13.756 78.6401 13.9389V20.1023C78.6401 20.2833 78.5418 20.2919 78.4457 20.2919H77.5114C77.3257 20.2919 77.3161 20.1969 77.3161 20.1023V17.6177H76.8881C76.2844 17.6177 76.2172 17.9704 76.1485 18.2577L75.9245 19.261C75.8564 19.5768 75.7793 19.92 75.5165 20.1395C75.2829 20.3413 74.8344 20.4552 74.5321 20.4552C74.3377 20.4552 74.3193 20.3878 74.2888 20.3114L74.0369 19.5865C74.0176 19.5288 74.0077 19.4247 74.1336 19.3945L74.3865 19.3383C74.6201 19.2806 74.7177 19.1942 74.8241 18.6974L74.9317 18.2198C75.0285 17.7719 75.1946 17.3493 75.7298 17.1105V17.0925C75.4085 17.0061 75.0574 16.8058 74.8534 16.5188C74.659 16.251 74.5806 15.8693 74.5806 15.5823C74.5806 15.0663 74.7862 14.5405 75.1554 14.2263C75.681 13.7664 76.4601 13.7472 76.8486 13.7472L78.4457 13.7466ZM77.3158 14.7789H76.8293C76.0309 14.7789 75.8953 15.2953 75.8953 15.6876C75.8953 16.5756 76.6741 16.585 76.8486 16.585H77.3158V14.7789Z" fill="#1E4381"/>
<path fill-rule="evenodd" clip-rule="evenodd" d="M20.4838 31.9639C18.1081 31.9639 18.0605 29.2214 18.0605 28.5333C18.0605 27.8363 18.1081 25.0938 20.4838 25.0938C22.8582 25.0938 22.907 27.8649 22.907 28.5333C22.907 29.2214 22.8582 31.9639 20.4838 31.9639ZM21.5251 28.5333C21.5251 27.6156 21.4178 26.1261 20.4838 26.1261C19.5498 26.1261 19.4421 27.6262 19.4421 28.5333C19.4421 29.3172 19.5006 30.9316 20.4838 30.9316C21.4666 30.9316 21.5251 29.3172 21.5251 28.5333Z" fill="#1E4381"/>
<path fill-rule="evenodd" clip-rule="evenodd" d="M25.5639 31.61C25.5639 31.6964 25.5447 31.8024 25.3696 31.8024H24.4355C24.2595 31.8024 24.2402 31.6964 24.2402 31.61V25.4479C24.2402 25.2751 24.3475 25.2559 24.4355 25.2559H26.0311C26.47 25.2559 27.0724 25.2748 27.5203 25.5246C27.8908 25.7249 28.3088 26.1548 28.3088 27.0815C28.3088 28.3429 27.4628 29.1841 26.0799 29.1841H25.5639V31.61ZM25.5639 28.1511H25.8663C26.4299 28.1511 26.9847 28.0757 26.9847 27.1487C26.9847 26.2687 26.3627 26.2592 25.9922 26.2592H25.5643L25.5639 28.1511Z" fill="#1E4381"/>
<path fill-rule="evenodd" clip-rule="evenodd" d="M29.7305 25.4479C29.7305 25.2751 29.8384 25.2559 29.9249 25.2559H33.2249C33.3521 25.2559 33.3801 25.3133 33.3801 25.3722C33.3801 25.3902 33.3714 25.4094 33.3618 25.4562L33.1658 26.2494C33.1378 26.3838 33.0302 26.4033 32.9425 26.4033H31.0545V31.61C31.0545 31.6964 31.0349 31.8024 30.8601 31.8024H29.9249C29.7501 31.8024 29.7305 31.6964 29.7305 31.61V25.4479Z" fill="#1E4381"/>
<path fill-rule="evenodd" clip-rule="evenodd" d="M36.1524 25.2573C36.2491 25.2573 36.2699 25.3147 36.2979 25.4109L38.2064 31.573C38.216 31.6115 38.2359 31.6402 38.2359 31.6881C38.2359 31.7925 38.128 31.8026 38.0792 31.8026H36.9996C36.882 31.8026 36.8531 31.7928 36.794 31.6017L36.3664 30.0536H34.6924L34.2927 31.6017C34.2535 31.7541 34.2448 31.8026 34.1176 31.8026H33.076C32.8716 31.8026 32.9111 31.6692 32.9307 31.6118L34.8672 25.4014C34.8964 25.315 34.9061 25.2576 35.032 25.2576L36.1524 25.2573ZM35.7247 27.5498C35.656 27.264 35.5875 26.9388 35.5107 26.2796H35.4815C35.4715 26.5376 35.4423 26.8915 35.2675 27.5498L34.8383 29.1941H36.1234L35.7247 27.5498Z" fill="#1E4381"/>
<path fill-rule="evenodd" clip-rule="evenodd" d="M39.2773 25.4479C39.2773 25.2669 39.3741 25.2559 39.4717 25.2559H40.4057C40.5037 25.2559 40.6017 25.2669 40.6017 25.4479V27.8845H42.4405V25.4479C42.4405 25.2669 42.5381 25.2559 42.6349 25.2559H43.5698C43.7546 25.2559 43.7642 25.3517 43.7642 25.4479V31.6103C43.7642 31.7062 43.7546 31.8027 43.5698 31.8027H42.6349C42.5381 31.8027 42.4405 31.7917 42.4405 31.6103V28.9157H40.6017V31.6103C40.6017 31.7917 40.504 31.8027 40.4057 31.8027H39.4717C39.3741 31.8027 39.2773 31.7917 39.2773 31.6103V25.4479Z" fill="#1E4381"/>
<path fill-rule="evenodd" clip-rule="evenodd" d="M49.8685 25.2571C50.0437 25.2571 50.0629 25.3625 50.0629 25.4489V31.6113C50.0629 31.6977 50.0437 31.8021 49.8685 31.8021H48.9345C48.7585 31.8021 48.7401 31.6977 48.7401 31.6113V28.5735C48.7401 28.3142 48.7585 27.8556 48.7781 27.5219H48.7401C48.4957 28.1906 48.3405 28.4965 48.1949 28.8028L46.8513 31.64C46.8024 31.7456 46.7729 31.8024 46.6273 31.8024H45.6933C45.5173 31.8024 45.498 31.698 45.498 31.6116V25.4489C45.498 25.2761 45.6056 25.2571 45.6933 25.2571H46.6273C46.8024 25.2571 46.8217 25.3625 46.8217 25.4489V28.2C46.8217 28.6501 46.8024 28.4483 46.7825 29.538H46.8217C46.9769 29.1551 47.3181 28.3713 47.4637 28.0571L48.6913 25.4574C48.7498 25.3335 48.7681 25.2568 48.9442 25.2568L49.8685 25.2571Z" fill="#1E4381"/>
<path fill-rule="evenodd" clip-rule="evenodd" d="M52.3693 28.104C52.3693 28.0176 52.3892 27.9122 52.5637 27.9122H52.7678C53.8097 27.9122 53.8097 27.1586 53.8097 26.9953C53.8097 26.8045 53.7609 26.1263 52.9149 26.1263C52.7398 26.1263 52.4281 26.1648 52.0477 26.431C51.9709 26.49 51.9121 26.5278 51.8633 26.5278C51.8241 26.5278 51.7849 26.4979 51.7361 26.431L51.4058 25.9449C51.3765 25.9064 51.3569 25.8774 51.3569 25.82C51.3569 25.6951 51.4938 25.5907 51.6098 25.5248C51.9902 25.286 52.5059 25.0942 53.1578 25.0942C54.335 25.0942 55.065 25.7254 55.065 26.8344C55.065 27.8847 54.335 28.2374 54.0822 28.3333C54.8314 28.4762 55.279 29.0597 55.279 29.9492C55.279 30.9898 54.6666 31.9644 52.9046 31.9644C52.2434 31.9644 51.5806 31.7916 51.2406 31.5153C51.2014 31.4866 51.123 31.4194 51.123 31.3522C51.123 31.3137 51.133 31.2765 51.1722 31.2093L51.4742 30.6737C51.5022 30.627 51.5218 30.5791 51.6002 30.5791C51.6689 30.5791 51.7361 30.6356 51.8434 30.693C52.0098 30.7888 52.3401 30.9317 52.8362 30.9317C53.1674 30.9317 53.4878 30.8743 53.7323 30.598C53.9167 30.3882 53.9559 30.1385 53.9559 29.9489C53.9559 29.4603 53.7603 29.2121 53.5562 29.0881C53.3323 28.9538 53.0698 28.9452 52.8458 28.9452H52.5634C52.3889 28.9452 52.369 28.8399 52.369 28.7534L52.3693 28.104Z" fill="#1E4381"/>
<path fill-rule="evenodd" clip-rule="evenodd" d="M59.2323 25.2573C59.33 25.2573 59.3493 25.3147 59.3788 25.4109L61.2861 31.573C61.296 31.6115 61.3156 31.6402 61.3156 31.6881C61.3156 31.7925 61.2083 31.8026 61.1592 31.8026H60.0796C59.9623 31.8026 59.9331 31.7928 59.8743 31.6017L59.4463 30.0536H57.7724L57.374 31.6017C57.3351 31.7541 57.3251 31.8026 57.1979 31.8026H56.1563C55.9522 31.8026 55.9908 31.6692 56.0107 31.6118L57.9475 25.4014C57.977 25.315 57.9867 25.2576 58.1139 25.2576L59.2323 25.2573ZM58.8044 27.5498C58.7356 27.264 58.6675 26.9388 58.5907 26.2796H58.5611C58.5515 26.5376 58.522 26.8915 58.3472 27.5498L57.9192 29.1941H59.2028L58.8044 27.5498Z" fill="#1E4381"/>
<path fill-rule="evenodd" clip-rule="evenodd" d="M65.3827 30.7709V25.4491C65.3827 25.2763 65.4903 25.2573 65.5771 25.2573H66.5111C66.6872 25.2573 66.7064 25.3627 66.7064 25.4491V30.7709H67.0952C67.1832 30.7709 67.2896 30.7901 67.2896 30.9617V33.1593C67.2896 33.2457 67.27 33.3501 67.0952 33.3501H66.2492C66.0732 33.3501 66.0539 33.2457 66.0539 33.1593V31.802H62.5499C62.3751 31.802 62.3555 31.6976 62.3555 31.6112V25.4491C62.3555 25.2763 62.4631 25.2573 62.5499 25.2573H63.4851C63.6599 25.2573 63.6795 25.3627 63.6795 25.4491V30.7709H65.3827Z" fill="#1E4381"/>
<path fill-rule="evenodd" clip-rule="evenodd" d="M72.8677 25.2571C73.0425 25.2571 73.0621 25.3625 73.0621 25.4489V31.6113C73.0621 31.6977 73.0425 31.8021 72.8677 31.8021H71.9337C71.7586 31.8021 71.7393 31.6977 71.7393 31.6113V28.5735C71.7393 28.3142 71.7586 27.8556 71.7785 27.5219H71.7393C71.496 28.1906 71.3393 28.4965 71.1937 28.8028L69.8501 31.64C69.8025 31.7456 69.7733 31.8024 69.6265 31.8024H68.6924C68.5164 31.8024 68.498 31.698 68.498 31.6116V25.4489C68.498 25.2761 68.6044 25.2571 68.6924 25.2571H69.6265C69.8025 25.2571 69.8208 25.3625 69.8208 25.4489V28.2C69.8208 28.6501 69.8025 28.4483 69.7826 29.538H69.8208C69.9773 29.1551 70.3173 28.3713 70.4637 28.0571L71.6901 25.4574C71.7486 25.3335 71.7682 25.2568 71.943 25.2568L72.8677 25.2571Z" fill="#1E4381"/>
<path fill-rule="evenodd" clip-rule="evenodd" d="M78.4457 25.2573C78.5422 25.2573 78.6401 25.2671 78.6401 25.4491V31.6115C78.6401 31.7925 78.5418 31.8023 78.4457 31.8023H77.5114C77.3257 31.8023 77.3161 31.7074 77.3161 31.6115V29.1281H76.8881C76.2844 29.1281 76.2172 29.4808 76.1485 29.7678L75.9245 30.7712C75.8564 31.0869 75.7793 31.4289 75.5165 31.6499C75.2829 31.8515 74.8344 31.9654 74.5321 31.9654C74.3377 31.9654 74.3193 31.8982 74.2888 31.8215L74.0369 31.0954C74.0176 31.0377 74.0077 30.933 74.1336 30.9046L74.3865 30.8481C74.6201 30.7907 74.7177 30.7043 74.8241 30.2072L74.9317 29.7284C75.0285 29.2808 75.1946 28.8591 75.7298 28.6204V28.6023C75.4085 28.5159 75.0574 28.3144 74.8534 28.0286C74.659 27.7611 74.5806 27.3782 74.5806 27.0927C74.5806 26.5764 74.7862 26.0497 75.1554 25.7352C75.681 25.2766 76.4601 25.2576 76.8486 25.2576L78.4457 25.2573ZM77.3158 26.2882H76.8293C76.0309 26.2882 75.8953 26.8054 75.8953 27.1965C75.8953 28.0863 76.6741 28.0946 76.8486 28.0946H77.3158V26.2882Z" fill="#1E4381"/>
</g>
<defs>
<clipPath id="clip0_402_8564">
<rect width="174" height="33" fill="white" transform="translate(0 0.5)"/>
</clipPath>
</defs>
</svg>
